HIERARCHY
ROOT Hips
{
	OFFSET -0.001795 -0.223333 0.028219
	CHANNELS 6 Xposition Yposition Zposition Zrotation Yrotation Xrotation 
	JOINT LeftUpLeg
	{
		OFFSET 0.069520 -0.091406 -0.006815
		CHANNELS 3 Zrotation Yrotation Xrotation
		JOINT LeftLeg
		{
			OFFSET 0.034277 -0.375199 -0.004496
			CHANNELS 3 Zrotation Yrotation Xrotation
			JOINT LeftFoot
			{
				OFFSET -0.013596 -0.397961 -0.043693
				CHANNELS 3 Zrotation Yrotation Xrotation
				JOINT LeftToe
				{
					OFFSET 0.026358 -0.055791 0.119288
					CHANNELS 3 Zrotation Yrotation Xrotation
					End Site
					{
						OFFSET 0.000000 0.000000 0.000000
					}
				}
			}
		}
	}
	JOINT RightUpLeg
	{
		OFFSET -0.067670 -0.090522 -0.004320
		CHANNELS 3 Zrotation Yrotation Xrotation
		JOINT RightLeg
		{
			OFFSET -0.038290 -0.382569 -0.008850
			CHANNELS 3 Zrotation Yrotation Xrotation
			JOINT RightFoot
			{
				OFFSET 0.015774 -0.398415 -0.042312
				CHANNELS 3 Zrotation Yrotation Xrotation
				JOINT RightToe
				{
					OFFSET -0.025372 -0.048144 0.123348
					CHANNELS 3 Zrotation Yrotation Xrotation
					End Site
					{
						OFFSET 0.000000 0.000000 0.000000
					}
				}
			}
		}
	}
	JOINT Spine
	{
		OFFSET -0.002533 0.108963 -0.026696
		CHANNELS 3 Zrotation Yrotation Xrotation
		JOINT Spine1
		{
			OFFSET 0.005487 0.135180 0.001092
			CHANNELS 3 Zrotation Yrotation Xrotation
			JOINT Spine2
			{
				OFFSET 0.001457 0.052922 0.025425
				CHANNELS 3 Zrotation Yrotation Xrotation
				JOINT Neck
				{
					OFFSET -0.002778 0.213870 -0.042857
					CHANNELS 3 Zrotation Yrotation Xrotation
					JOINT Head
					{
						OFFSET 0.005152 0.064970 0.051349
						CHANNELS 3 Zrotation Yrotation Xrotation
						End Site
						{
							OFFSET 0.000000 0.000000 0.000000
						}
					}
				}
				JOINT LeftShoulder
				{
					OFFSET 0.078845 0.121749 -0.034090
					CHANNELS 3 Zrotation Yrotation Xrotation
					JOINT LeftArm
					{
						OFFSET 0.090977 0.030469 -0.008868
						CHANNELS 3 Zrotation Yrotation Xrotation
						JOINT LeftForeArm
						{
							OFFSET 0.259612 -0.012772 -0.027456
							CHANNELS 3 Zrotation Yrotation Xrotation
							JOINT LeftHand
							{
								OFFSET 0.249234 0.008986 -0.001171
								CHANNELS 3 Zrotation Yrotation Xrotation
								End Site
								{
									OFFSET 0.000000 0.000000 0.000000
								}
							}
						}
					}
				}
				JOINT RightShoulder
				{
					OFFSET -0.081759 0.118833 -0.038615
					CHANNELS 3 Zrotation Yrotation Xrotation
					JOINT RightArm
					{
						OFFSET -0.096012 0.032551 -0.009143
						CHANNELS 3 Zrotation Yrotation Xrotation
						JOINT RightForeArm
						{
							OFFSET -0.253742 -0.013329 -0.021401
							CHANNELS 3 Zrotation Yrotation Xrotation
							JOINT RightHand
							{
								OFFSET -0.255298 0.007772 -0.005559
								CHANNELS 3 Zrotation Yrotation Xrotation
								End Site
								{
									OFFSET 0.000000 0.000000 0.000000
								}
							}
						}
					}
				}
			}
		}
	}
}
MOTION
Frames: 6
Frame Time: 0.050000
0.000000 0.937185 0.000000 -0.267058 -5.196002 1.928950 5.098888 -0.397504 -8.335010 -6.647987 1.001761 5.956221 7.457864 15.829943 4.911772 0.000000 0.000000 0.000000 1.187871 -0.069165 0.230025 4.913510 -0.447798 5.246565 -6.839822 -16.873074 2.447645 0.000000 0.000000 0.000000 -1.134987 -0.149127 5.714992 3.127745 -0.374654 -21.578884 0.969316 2.109106 32.436886 -1.130292 2.135563 -28.940616 0.000000 0.000000 0.000000 -25.201620 9.499492 -6.909088 -26.752455 22.256100 -8.468989 -87.384739 -18.449011 18.702059 0.000000 0.000000 0.000000 13.295452 -2.342855 -1.893026 24.762138 -29.390889 -8.388205 101.001902 15.513701 15.382182 0.000000 0.000000 0.000000 
0.000331 0.934814 -0.000309 -0.892965 -4.111441 2.762803 5.548355 -0.411682 -8.826145 -6.540783 0.969671 6.482437 8.070826 16.909810 2.834056 0.000000 0.000000 0.000000 2.060732 -0.084879 0.070599 4.812309 -0.452998 4.320524 -6.892475 -16.880348 1.247895 0.000000 0.000000 0.000000 -0.453224 -0.183884 5.331131 2.248413 -0.146807 -21.122028 2.263069 1.183716 31.023039 -1.884126 2.560583 -30.428021 0.000000 0.000000 0.000000 -25.321361 9.568983 -7.009286 -24.881327 22.144292 -7.689335 -88.748223 -16.635631 16.947940 0.000000 0.000000 0.000000 12.354375 -4.001522 -2.670635 23.150042 -30.809945 -7.881715 101.521857 15.025849 14.534396 0.000000 0.000000 0.000000 
0.000881 0.934294 -0.000161 -0.751606 -3.493073 2.774511 5.893416 -0.399413 -8.868914 -6.874605 1.042567 7.305975 7.151433 15.174336 2.975298 0.000000 0.000000 0.000000 1.889354 -0.045976 -0.196980 4.972181 -0.483733 5.208986 -7.945322 -19.274671 1.416635 0.000000 0.000000 0.000000 0.096731 -0.217400 5.258705 2.842061 -0.267394 -21.508739 0.874236 1.598135 31.698328 -0.141061 1.752684 -30.734283 0.000000 0.000000 0.000000 -25.266956 9.868748 -7.401123 -22.756360 21.544882 -6.857225 -89.486802 -16.706716 16.804768 0.000000 0.000000 0.000000 11.727672 -4.388814 -2.670217 23.973662 -32.516282 -8.523989 99.457491 16.580723 16.247273 0.000000 0.000000 0.000000 
0.001366 0.932964 0.000526 -0.477635 -3.341431 3.405913 5.699289 -0.459631 -9.851419 -7.378561 1.155406 7.931904 7.266135 15.431175 3.507858 0.000000 0.000000 0.000000 1.345722 0.025550 -0.700387 5.977643 -0.627892 5.442547 -8.023402 -19.493555 1.874495 0.000000 0.000000 0.000000 -0.936690 -0.104885 3.830548 3.993836 -0.511926 -22.219152 0.511404 1.324309 32.846319 -0.269939 1.795350 -30.983280 0.000000 0.000000 0.000000 -27.077292 10.725270 -8.257540 -20.407314 21.656768 -6.062307 -88.664389 -16.004898 15.497568 0.000000 0.000000 0.000000 11.748788 -3.876257 -2.437919 22.099526 -33.128576 -7.858527 99.639805 15.270744 14.207676 0.000000 0.000000 0.000000 
0.002047 0.932647 0.001725 -0.203039 -3.599323 3.383314 5.107113 -0.520467 -10.335994 -7.203573 1.157968 8.649702 7.743813 16.324182 3.573340 0.000000 0.000000 0.000000 0.910909 0.072205 -1.020466 5.709708 -0.589782 6.394291 -7.555914 -18.379855 0.945599 0.000000 0.000000 0.000000 -0.811600 -0.108875 3.762458 4.189250 -0.647274 -21.018654 -0.284672 1.794036 31.742485 -0.077763 1.719309 -30.241319 0.000000 0.000000 0.000000 -26.975526 10.898492 -8.483727 -19.370255 21.123290 -5.577098 -89.150189 -17.498476 17.098006 0.000000 0.000000 0.000000 12.018042 -3.953018 -2.491463 21.539372 -31.969540 -7.381593 98.244924 16.325605 15.273404 0.000000 0.000000 0.000000 
0.002831 0.932256 0.003197 0.218366 -3.958114 3.495776 4.570714 -0.559601 -10.306227 -7.283469 1.183580 8.604219 7.902341 16.603038 3.039019 0.000000 0.000000 0.000000 0.318814 0.079297 -0.932302 5.812980 -0.600841 7.070233 -7.760082 -18.778327 0.622356 0.000000 0.000000 0.000000 -1.156525 -0.072837 3.215528 3.824840 -0.530446 -21.418294 -0.085148 1.995318 32.386650 0.226896 1.567984 -30.704042 0.000000 0.000000 0.000000 -26.962017 10.878773 -8.439545 -18.161651 20.480137 -5.108446 -89.521345 -17.498879 17.027556 0.000000 0.000000 0.000000 12.127885 -3.976997 -2.503571 21.622901 -31.823147 -7.425520 97.773139 16.317724 15.112596 0.000000 0.000000 0.000000 
